<?xml version="1.0" standalone="no"?>
<!DOCTYPE svg PUBLIC "-//W3C//DTD SVG 20010904//EN"
 "http://www.w3.org/TR/2001/REC-SVG-20010904/DTD/svg10.dtd">
<svg version="1.0" xmlns="http://www.w3.org/2000/svg"
 width="300.000000pt" height="300.000000pt" viewBox="0 0 300.000000 300.000000"
 preserveAspectRatio="xMidYMid meet">
<metadata>
Created by potrace 1.14, written by Peter Selinger 2001-2017
</metadata>
<g transform="translate(0.000000,300.000000) scale(0.100000,-0.100000)"
fill="#000000" stroke="none">
<path d="M0 1500 l0 -1500 1500 0 1500 0 0 1500 0 1500 -1500 0 -1500 0 0
-1500z m1170 898 c39 -20 46 -28 51 -61 8 -49 -11 -163 -49 -297 -38 -131 -82
-366 -117 -615 -31 -221 -35 -252 -46 -355 -26 -253 -57 -371 -105 -411 -17
-14 -177 -25 -218 -15 -42 10 -64 43 -77 117 -15 82 0 170 55 340 59 181 112
443 139 687 l5 42 -41 0 c-32 0 -62 -12 -127 -50 -97 -57 -136 -68 -177 -48
-55 26 -82 133 -48 197 24 48 109 114 225 175 99 52 122 69 217 167 58 60 125
118 147 129 54 26 111 25 166 -2z m1150 -35 c113 -51 204 -156 244 -282 18
-56 21 -90 20 -226 0 -180 -11 -247 -85 -564 -31 -131 -75 -236 -130 -312 -92
-125 -115 -153 -150 -175 -21 -13 -45 -37 -53 -52 -15 -28 -43 -43 -141 -72
-22 -7 -51 -19 -64 -27 -19 -12 -56 -14 -195 -11 l-172 3 -58 40 c-138 94
-180 154 -192 272 -8 77 8 131 51 173 33 32 41 35 95 35 69 0 90 -16 152 -112
22 -34 53 -74 70 -89 30 -25 36 -26 138 -22 132 4 172 23 259 123 62 70 99
144 104 208 l2 32 -70 0 c-47 0 -103 -10 -169 -29 -110 -32 -168 -32 -265 0
-65 22 -190 108 -208 144 -73 149 -73 148 -73 259 0 170 49 322 150 470 42 63
127 129 240 186 105 53 114 55 290 52 141 -3 172 -6 210 -24z"/>
<path d="M1963 2071 c-140 -52 -219 -166 -230 -332 -7 -99 -1 -121 49 -175 59
-64 103 -84 184 -84 123 0 242 81 311 211 25 49 28 64 28 154 0 88 -3 107 -25
149 -39 76 -64 90 -173 93 -72 3 -103 -1 -144 -16z"/>
</g>
</svg>
